<svg width="32" height="32" viewBox="0 0 32 32" fill="none" xmlns="http://www.w3.org/2000/svg">
<path d="M19.5737 13.311L12.3094 4.96053L5.37988 11.1671L4.73438 10.446L12.3949 3.58447L19.7212 12.0064L26.6575 6.95239L27.2275 7.73447L19.5737 13.311Z" fill="#7EB4FA"/>
<path d="M2.63281 16.2739H7.47464V29.4571H2.63281V16.2739Z" fill="#C6E1F7"/>
<path d="M9.92969 10.8066H14.7715V29.4571H9.92969V10.8066Z" fill="#7EB4FA"/>
<path d="M17.2266 18.9834H22.0684V29.4573H17.2266V18.9834Z" fill="#C6E1F7"/>
<path d="M24.5234 13.7244H29.3653V29.4574H24.5234V13.7244Z" fill="#7EB4FA"/>
<path d="M1 28.9736H31.0015V29.9414H1V28.9736Z" fill="#1367F7"/>
<path d="M7.27261 11.0198C7.27261 12.2418 6.27822 13.2322 5.05618 13.2322C3.83414 13.2322 2.84375 12.2418 2.84375 11.0198C2.84375 9.79776 3.83414 8.80737 5.05618 8.80737C6.27822 8.80737 7.27261 9.79776 7.27261 11.0198Z" fill="#1367F7"/>
<path d="M14.5695 4.27322C14.5695 5.49526 13.5751 6.48565 12.3531 6.48565C11.131 6.48565 10.1406 5.49526 10.1406 4.27322C10.1406 3.05118 11.131 2.06079 12.3531 2.06079C13.5751 2.06079 14.5695 3.05118 14.5695 4.27322Z" fill="#1367F7"/>
<path d="M21.8664 12.659C21.8664 13.881 20.872 14.8714 19.6499 14.8714C18.4279 14.8714 17.4375 13.881 17.4375 12.659C17.4375 11.4369 18.4279 10.4465 19.6499 10.4465C20.872 10.4465 21.8664 11.4369 21.8664 12.659Z" fill="#1367F7"/>
<path d="M29.1632 7.34426C29.1632 8.5663 28.1688 9.55669 26.9468 9.55669C25.7248 9.55669 24.7344 8.5663 24.7344 7.34426C24.7344 6.12222 25.7248 5.13184 26.9468 5.13184C28.1688 5.13178 29.1632 6.12222 29.1632 7.34426Z" fill="#1367F7"/>
</svg>
