<svg width="20" height="20" viewBox="0 0 20 20" fill="none" xmlns="http://www.w3.org/2000/svg">
<g clip-path="url(#clip0_756_6373)">
<path d="M10 0C4.48578 0 0 4.48578 0 10C0 15.5142 4.48578 20 10 20C15.5142 20 20 15.5142 20 10C20 4.48578 15.5142 0 10 0Z" fill="#46A3ED"/>
<path d="M15.0712 7.88074L9.65445 13.2973C9.49194 13.4598 9.27863 13.5416 9.06531 13.5416C8.85199 13.5416 8.63867 13.4598 8.47617 13.2973L5.76788 10.589C5.44196 10.2632 5.44196 9.73651 5.76788 9.41074C6.09366 9.08481 6.62024 9.08481 6.94617 9.41074L9.06531 11.5299L13.8929 6.70245C14.2187 6.37653 14.7452 6.37653 15.0712 6.70245C15.3969 7.02823 15.3969 7.55481 15.0712 7.88074Z" fill="#FAFAFA"/>
</g>
<defs>
<clipPath id="clip0_756_6373">
<rect width="20" height="20" fill="white"/>
</clipPath>
</defs>
</svg>
