<svg width="42" height="38" viewBox="0 0 42 38" fill="none" xmlns="http://www.w3.org/2000/svg">
<path d="M32.4955 11.4812L27.8757 10.2137C27.717 10.1701 27.6741 9.96516 27.8023 9.86173L28.1188 9.60616C28.3173 9.44595 28.3211 9.14208 28.1233 8.98117C26.1799 7.40017 23.7021 6.45303 21.0021 6.45303C14.7655 6.45303 9.70995 11.5086 9.70995 17.7452H5.94531C5.94531 9.43003 12.6869 2.68848 21.0021 2.68848C24.9387 2.68848 28.523 4.19905 31.2056 6.67355C31.3522 6.80882 31.5761 6.81517 31.7314 6.68986L32.1579 6.34544C32.2859 6.24201 32.4773 6.32709 32.4864 6.49146L32.7506 11.2755C32.7582 11.4131 32.6285 11.5177 32.4955 11.4812Z" fill="#BBEC6C"/>
<path d="M32.7469 11.2754L32.4827 6.49145C32.4736 6.32708 32.2823 6.242 32.1542 6.34543L31.7277 6.68985C31.5724 6.81524 31.3485 6.80881 31.2019 6.67354C31.1277 6.60516 31.0529 6.53756 30.9774 6.47067L31.1312 9.2557C31.1388 9.39348 31.0091 9.49809 30.8761 9.46163L27.5547 8.55033C27.7476 8.68811 27.936 8.83185 28.1196 8.98124C28.3175 9.14223 28.3136 9.44602 28.1151 9.60623L27.7986 9.8618C27.6706 9.96523 27.7133 10.1701 27.872 10.2137L32.4918 11.4813C32.6248 11.5178 32.7545 11.4131 32.7469 11.2754Z" fill="#A2E62E"/>
<path d="M24.3586 8.96231H17.6383C17.4152 8.96231 17.2344 8.78148 17.2344 8.55838V0.583377C17.2344 0.360276 17.4152 0.179443 17.6383 0.179443H21.9185C22.1328 0.179443 22.3383 0.264527 22.4897 0.416032L24.5259 2.45217C24.6774 2.60367 24.7625 2.80913 24.7625 3.02337V8.5583C24.7625 8.78148 24.5817 8.96231 24.3586 8.96231Z" fill="#EAF6FF"/>
<path d="M24.526 2.45237L23.3231 1.24951C23.3663 1.34957 23.3892 1.45834 23.3892 1.56946V7.10439C23.3892 7.32749 23.2084 7.50833 22.9853 7.50833H17.2344V8.55851C17.2344 8.78161 17.4152 8.96244 17.6383 8.96244H24.3586C24.5817 8.96244 24.7625 8.78161 24.7625 8.55851V3.02357C24.7625 2.80933 24.6775 2.60388 24.526 2.45237Z" fill="#D8ECFE"/>
<path d="M21.0012 3.29497H19.7465C19.4118 3.29497 19.1406 3.02372 19.1406 2.68911C19.1406 2.3545 19.4119 2.08325 19.7465 2.08325H21.0012C21.3359 2.08325 21.607 2.3545 21.607 2.68911C21.607 3.02372 21.3359 3.29497 21.0012 3.29497Z" fill="#3C87D0"/>
<path d="M22.2559 5.80425H19.7465C19.4118 5.80425 19.1406 5.533 19.1406 5.19839C19.1406 4.86378 19.4119 4.59253 19.7465 4.59253H22.2559C22.5906 4.59253 22.8617 4.86378 22.8617 5.19839C22.8617 5.533 22.5906 5.80425 22.2559 5.80425Z" fill="#3C87D0"/>
<path d="M0.921875 30.2922V34.0563C0.921875 36.1352 4.85409 37.8204 9.70475 37.8204C14.5554 37.8204 18.4876 36.1352 18.4876 34.0563V30.2922H0.921875Z" fill="#D8ECFE"/>
<path d="M16.8731 30.2922V32.4406C16.8731 34.5195 12.9408 36.2047 8.09019 36.2047C5.2069 36.2047 2.64818 35.6092 1.04688 34.6896C1.74958 36.467 5.35895 37.8204 9.70592 37.8204C14.5566 37.8204 18.4888 36.1352 18.4888 34.0563V30.2922H16.8731Z" fill="#C4E2FF"/>
<path d="M9.70475 34.0563C14.5554 34.0563 18.4876 32.371 18.4876 30.2922C18.4876 28.2133 14.5554 26.5281 9.70475 26.5281C4.8541 26.5281 0.921875 28.2133 0.921875 30.2922C0.921875 32.371 4.8541 34.0563 9.70475 34.0563Z" fill="#B3DAFE"/>
<path d="M0.921875 24.0188V27.7829C0.921875 27.9988 0.964299 28.2103 1.0457 28.4163C1.74833 30.1935 5.35777 30.8108 9.70475 30.8108C14.5554 30.8108 17.6699 29.8618 17.6699 27.7829L18.4876 24.0188H0.921875Z" fill="#D8ECFE"/>
<path d="M16.8731 24.0188V26.1672C16.8731 28.246 12.9408 29.9312 8.09019 29.9312C5.2069 29.9312 2.64818 29.3358 1.04688 28.4162C1.74958 30.1935 5.35895 31.547 9.70592 31.547C14.5566 31.547 18.4888 29.8618 18.4888 27.7829V24.0188H16.8731Z" fill="#C4E2FF"/>
<path d="M9.70475 27.7828C14.5554 27.7828 18.4876 26.0976 18.4876 24.0187C18.4876 21.9399 14.5554 20.2546 9.70475 20.2546C4.8541 20.2546 0.921875 21.9399 0.921875 24.0187C0.921875 26.0976 4.8541 27.7828 9.70475 27.7828Z" fill="#B3DAFE"/>
<path d="M0.921875 17.7454V21.5094C0.921875 21.7253 0.964299 21.9369 1.0457 22.1428C1.74841 23.9201 5.2316 24.4114 9.57857 24.4114C14.4292 24.4114 17.7563 23.5883 17.7563 21.5094L18.4876 17.7454H0.921875Z" fill="#D8ECFE"/>
<path d="M16.8731 17.7454V19.8937C16.8731 21.9726 12.9408 23.6578 8.09019 23.6578C5.2069 23.6578 2.64818 23.0624 1.04688 22.1428C1.74958 23.9201 5.35895 25.2735 9.70592 25.2735C14.5566 25.2735 18.4888 23.5883 18.4888 21.5094V17.7454H16.8731Z" fill="#C4E2FF"/>
<path d="M9.70475 21.5094C14.5554 21.5094 18.4876 19.8241 18.4876 17.7453C18.4876 15.6664 14.5554 13.9812 9.70475 13.9812C4.8541 13.9812 0.921875 15.6664 0.921875 17.7453C0.921875 19.8241 4.8541 21.5094 9.70475 21.5094Z" fill="#EAF6FF"/>
<path d="M23.5078 30.2922V34.0563C23.5078 36.1352 27.44 37.8204 32.2907 37.8204C37.1413 37.8204 41.0736 36.1352 41.0736 34.0563V30.2922H23.5078Z" fill="#5F99D7"/>
<path d="M39.459 30.2922V32.4406C39.459 34.5195 35.5268 36.2047 30.6761 36.2047C27.7928 36.2047 25.2341 35.6092 23.6328 34.6896C24.3355 36.467 27.9449 37.8204 32.2919 37.8204C37.1425 37.8204 41.0747 36.1352 41.0747 34.0563V30.2922H39.459Z" fill="#3C87D0"/>
<path d="M32.2907 34.0563C37.1413 34.0563 41.0736 32.371 41.0736 30.2922C41.0736 28.2133 37.1413 26.5281 32.2907 26.5281C27.44 26.5281 23.5078 28.2133 23.5078 30.2922C23.5078 32.371 27.44 34.0563 32.2907 34.0563Z" fill="#0078C8"/>
<path d="M23.5078 24.0188V27.7829C23.5078 27.9988 23.5502 28.2103 23.6316 28.4163C24.3343 30.1935 27.9437 30.8108 32.2907 30.8108C37.1413 30.8108 40.2558 29.8618 40.2558 27.7829L41.0736 24.0188H23.5078Z" fill="#5F99D7"/>
<path d="M39.459 24.0188V26.1672C39.459 28.246 35.5268 29.9312 30.6761 29.9312C27.7928 29.9312 25.2341 29.3358 23.6328 28.4162C24.3355 30.1935 27.9449 31.547 32.2919 31.547C37.1425 31.547 41.0747 29.8618 41.0747 27.7829V24.0188H39.459Z" fill="#3C87D0"/>
<path d="M32.2907 27.7828C37.1413 27.7828 41.0736 26.0976 41.0736 24.0187C41.0736 21.9399 37.1413 20.2546 32.2907 20.2546C27.44 20.2546 23.5078 21.9399 23.5078 24.0187C23.5078 26.0976 27.44 27.7828 32.2907 27.7828Z" fill="#0078C8"/>
<path d="M23.5078 17.7454V21.5094C23.5078 21.7253 23.5502 21.9369 23.6316 22.1428C24.3343 23.9201 27.8175 24.4114 32.1645 24.4114C37.0152 24.4114 40.3422 23.5883 40.3422 21.5094L41.0736 17.7454H23.5078Z" fill="#5F99D7"/>
<path d="M39.459 17.7454V19.8937C39.459 21.9726 35.5268 23.6578 30.6761 23.6578C27.7928 23.6578 25.2341 23.0624 23.6328 22.1428C24.3355 23.9201 27.9449 25.2735 32.2919 25.2735C37.1425 25.2735 41.0747 23.5883 41.0747 21.5094V17.7454H39.459Z" fill="#3C87D0"/>
<path d="M32.2907 21.5094C37.1413 21.5094 41.0736 19.8241 41.0736 17.7453C41.0736 15.6664 37.1413 13.9812 32.2907 13.9812C27.44 13.9812 23.5078 15.6664 23.5078 17.7453C23.5078 19.8241 27.44 21.5094 32.2907 21.5094Z" fill="#7BACDF"/>
</svg>
