<svg width="19" height="17" viewBox="0 0 19 17" fill="none" xmlns="http://www.w3.org/2000/svg">
<path d="M18.5 14.25V11.25C18.5 11.0511 18.421 10.8603 18.2803 10.7197C18.1397 10.579 17.9489 10.5 17.75 10.5C17.5511 10.5 17.3603 10.579 17.2197 10.7197C17.079 10.8603 17 11.0511 17 11.25V14.25C17 14.4489 16.921 14.6397 16.7803 14.7803C16.6397 14.921 16.4489 15 16.25 15H2.75C2.55109 15 2.36032 14.921 2.21967 14.7803C2.07902 14.6397 2 14.4489 2 14.25V11.25C2 11.0511 1.92098 10.8603 1.78033 10.7197C1.63968 10.579 1.44891 10.5 1.25 10.5C1.05109 10.5 0.860322 10.579 0.71967 10.7197C0.579018 10.8603 0.5 11.0511 0.5 11.25V14.25C0.5 14.8467 0.737053 15.419 1.15901 15.841C1.58097 16.2629 2.15326 16.5 2.75 16.5H16.25C16.8467 16.5 17.419 16.2629 17.841 15.841C18.2629 15.419 18.5 14.8467 18.5 14.25ZM13.715 10.335L9.965 13.335C9.83259 13.4396 9.66876 13.4965 9.5 13.4965C9.33124 13.4965 9.16741 13.4396 9.035 13.335L5.285 10.335C5.14836 10.206 5.06511 10.0305 5.05173 9.84304C5.03834 9.65562 5.09578 9.47001 5.2127 9.32292C5.32962 9.17583 5.49749 9.07798 5.68309 9.04874C5.8687 9.0195 6.05852 9.06098 6.215 9.165L8.75 11.19V0.75C8.75 0.551088 8.82902 0.360322 8.96967 0.21967C9.11032 0.0790178 9.30109 0 9.5 0C9.69891 0 9.88968 0.0790178 10.0303 0.21967C10.171 0.360322 10.25 0.551088 10.25 0.75V11.19L12.785 9.165C12.8605 9.09371 12.95 9.03888 13.0478 9.00399C13.1457 8.9691 13.2497 8.95491 13.3533 8.96231C13.4569 8.96971 13.5578 8.99854 13.6496 9.04698C13.7415 9.09542 13.8223 9.16242 13.8869 9.24372C13.9516 9.32502 13.9986 9.41885 14.0251 9.51928C14.0515 9.61971 14.0568 9.72454 14.0407 9.82713C14.0245 9.92972 13.9872 10.0278 13.9312 10.1153C13.8751 10.2027 13.8015 10.2775 13.715 10.335Z" fill="#6AAEF2"/>
</svg>
