<svg width="40" height="40" viewBox="0 0 40 40" fill="none" xmlns="http://www.w3.org/2000/svg">
<g clip-path="url(#clip0_1172_7758)">
<path d="M37.3913 7.79125H34.4797C34.8638 7.18344 35.1172 6.50118 35.1895 5.77961C35.4203 3.4736 34.2059 1.40641 32.1383 0.489926C30.2378 -0.352495 28.1021 -0.00812045 26.5642 1.38672L22.8877 4.71875C22.1716 3.93563 21.1423 3.44344 20 3.44344C18.8556 3.44344 17.8247 3.93719 17.1085 4.72274L13.4273 1.38633C11.8869 -0.00851101 9.75203 -0.351558 7.85242 0.490395C5.78539 1.40696 4.5707 3.47485 4.80227 5.78079C4.87469 6.5018 5.12797 7.18375 5.51195 7.79125H2.60867C1.16789 7.79125 0 8.95922 0 10.3999V14.313C0 15.0333 0.583984 15.6173 1.30437 15.6173H38.6957C39.416 15.6173 40.0001 15.0334 40.0001 14.313V10.3999C40 8.95922 38.8321 7.79125 37.3913 7.79125ZM16.087 7.35649V7.79125H9.95078C8.32953 7.79125 7.05359 6.27985 7.45852 4.59188C7.63688 3.84852 8.17344 3.21485 8.86742 2.89407C9.82039 2.4536 10.876 2.595 11.6764 3.31946L16.088 7.31805C16.0878 7.33094 16.087 7.3436 16.087 7.35649ZM32.6011 5.43329C32.5039 6.78899 31.2793 7.79141 29.9202 7.79141H23.913V7.35665C23.913 7.34125 23.9121 7.32602 23.912 7.31063C24.9113 6.40469 27.0794 4.43969 28.2552 3.37383C28.9235 2.76813 29.8586 2.4854 30.723 2.74321C31.9634 3.11321 32.6918 4.16805 32.6011 5.43329Z" fill="#FF8D5D"/>
<path d="M2.60938 18.2251V37.3556C2.60938 38.7963 3.77727 39.9642 5.21805 39.9642H17.392V18.2251H2.60938Z" fill="#FF8D5D"/>
<path d="M22.6094 18.2251V39.9642H34.7833C36.2241 39.9642 37.392 38.7963 37.392 37.3556V18.2251H22.6094Z" fill="#FF8D5D"/>
</g>
<defs>
<clipPath id="clip0_1172_7758">
<rect width="40" height="40" fill="white"/>
</clipPath>
</defs>
</svg>
