<svg width="40" height="34" viewBox="0 0 40 34" fill="none" xmlns="http://www.w3.org/2000/svg">
<path d="M20.0022 27.9793C26.0568 27.9793 30.9825 23.0535 30.9825 16.9989C30.9825 10.9442 26.0568 6.01839 20.0022 6.01839C13.9463 6.01839 9.0195 10.9443 9.0195 16.9989C9.0195 23.0535 13.9464 27.9793 20.0022 27.9793ZM18.8303 10.8368V10.2689C18.8303 9.95806 18.9537 9.65999 19.1735 9.44022C19.3933 9.22045 19.6914 9.09698 20.0022 9.09698C20.313 9.09698 20.611 9.22045 20.8308 9.44022C21.0506 9.65999 21.174 9.95806 21.174 10.2689V10.8392C22.2691 11.1425 23.2016 11.86 23.7004 12.8346C23.8419 13.1112 23.8678 13.4328 23.7723 13.7286C23.6767 14.0244 23.4676 14.2701 23.1909 14.4116C22.9143 14.5532 22.5927 14.5791 22.2969 14.4835C22.0012 14.388 21.7555 14.1789 21.6139 13.9022C21.3404 13.3682 20.7069 13.0232 19.9995 13.0232C19.0568 13.0232 18.2603 13.6653 18.2603 14.4252C18.2603 15.2945 18.5382 15.4947 20.2429 15.8533C21.0658 16.0264 21.9166 16.2054 22.6484 16.6878C23.6015 17.3163 24.0852 18.2868 24.0852 19.5727C24.0852 21.2639 22.8561 22.6961 21.174 23.1599V23.7289C21.174 24.0397 21.0506 24.3378 20.8308 24.5576C20.611 24.7774 20.313 24.9008 20.0022 24.9008C19.6914 24.9008 19.3933 24.7774 19.1735 24.5576C18.9537 24.3378 18.8303 24.0397 18.8303 23.7289V23.1598C17.7343 22.8571 16.8008 22.139 16.3015 21.1632C16.1607 20.8866 16.1353 20.5655 16.2311 20.2702C16.3268 19.975 16.5357 19.7298 16.812 19.5884C17.0883 19.447 17.4094 19.421 17.7049 19.5161C18.0003 19.6112 18.246 19.8196 18.3879 20.0957C18.6614 20.6296 19.2937 20.9746 19.9995 20.9746C20.96 20.9746 21.7417 20.3457 21.7417 19.5727C21.7417 18.705 21.464 18.5052 19.7606 18.1468C18.9374 17.9736 18.0861 17.7946 17.3543 17.3118C16.4007 16.683 15.9168 15.7118 15.9168 14.4252C15.9167 12.7325 17.1472 11.2992 18.8304 10.8368H18.8303ZM35.0762 24.3379C33.4248 27.7309 30.6769 30.4675 27.2771 32.105C23.8774 33.7425 20.0246 34.185 16.3421 33.3611C12.6596 32.5371 9.36276 30.4948 6.98502 27.5646C4.60728 24.6344 3.28769 20.9877 3.23974 17.2144L2.62653 17.8275C2.40615 18.0443 2.10903 18.1653 1.79989 18.164C1.49074 18.1628 1.19462 18.0394 0.976027 17.8208C0.757432 17.6022 0.634074 17.306 0.632822 16.9969C0.631571 16.6877 0.752527 16.3906 0.969345 16.1703L3.58028 13.5592C3.80005 13.3394 4.09812 13.2159 4.40892 13.2159C4.71971 13.2159 5.01778 13.3394 5.23755 13.5592L7.84864 16.1703C8.06682 16.3904 8.18893 16.6879 8.18825 16.9978C8.18757 17.3077 8.06416 17.6048 7.84502 17.8239C7.62588 18.0431 7.32886 18.1665 7.01895 18.1671C6.70904 18.1678 6.41147 18.0457 6.19138 17.8275L5.58364 17.2197C5.70224 25.0701 12.1227 31.4201 19.9999 31.4201C25.5607 31.4201 30.5304 28.3128 32.9696 23.3107C33.0366 23.1717 33.1304 23.0473 33.2456 22.9446C33.3609 22.8419 33.4953 22.763 33.6411 22.7124C33.7869 22.6618 33.9413 22.6405 34.0953 22.6497C34.2494 22.659 34.4001 22.6985 34.5388 22.7662C34.6776 22.8338 34.8016 22.9282 34.9037 23.0439C35.0059 23.1596 35.0842 23.2944 35.1341 23.4404C35.184 23.5864 35.2046 23.7409 35.1947 23.8949C35.1848 24.049 35.1445 24.1995 35.0762 24.3379ZM39.0328 17.8275L36.4218 20.4385C36.202 20.6583 35.9039 20.7818 35.5931 20.7818C35.2823 20.7818 34.9843 20.6583 34.7645 20.4385L32.1534 17.8275C32.0438 17.7189 31.9567 17.5897 31.8972 17.4473C31.8377 17.3049 31.8069 17.1522 31.8065 16.9978C31.8062 16.8435 31.8363 16.6906 31.8952 16.548C31.9541 16.4054 32.0406 16.2758 32.1498 16.1666C32.2589 16.0575 32.3885 15.971 32.5311 15.9121C32.6738 15.8532 32.8267 15.8231 32.981 15.8234C33.1353 15.8237 33.288 15.8546 33.4304 15.9141C33.5728 15.9736 33.702 16.0607 33.8107 16.1703L34.4184 16.778C34.2998 8.92886 27.878 2.5798 19.9999 2.5798C14.4397 2.5798 9.47091 5.68628 7.03247 10.687C6.89539 10.9649 6.65382 11.1772 6.36061 11.2774C6.0674 11.3777 5.74643 11.3577 5.4679 11.2219C5.18938 11.0861 4.97598 10.8455 4.87439 10.5528C4.7728 10.26 4.7913 9.93894 4.92583 9.6598C6.57761 6.26725 9.32558 3.53113 12.7252 1.89401C16.1249 0.256897 19.9774 -0.185472 23.6597 0.638461C27.3419 1.46239 30.6385 3.50444 33.0163 6.4343C35.394 9.36416 36.7139 13.0105 36.7623 16.7835L37.3756 16.1703C37.596 15.9535 37.8931 15.8325 38.2022 15.8338C38.5114 15.835 38.8075 15.9584 39.0261 16.177C39.2447 16.3956 39.3681 16.6918 39.3693 17.0009C39.3706 17.31 39.2496 17.6072 39.0328 17.8275Z" fill="#FAC23A"/>
</svg>
