<svg width="34" height="34" viewBox="0 0 34 34" fill="none" xmlns="http://www.w3.org/2000/svg">
<path fill-rule="evenodd" clip-rule="evenodd" d="M24.8174 4.16303C23.3658 3.6879 21.3886 3.6669 17.0026 3.6669C14.6501 3.6669 12.9692 3.6678 11.6445 3.75818C10.3348 3.84753 9.4955 4.01876 8.81357 4.30123C6.77167 5.14702 5.14939 6.7693 4.3036 8.8112C4.02114 9.49313 3.84992 10.3324 3.76055 11.6421C3.67017 12.9668 3.66927 14.6477 3.66927 17.0002C3.66927 19.3527 3.67017 21.0337 3.76055 22.3584C3.84992 23.6681 4.02114 24.5074 4.3036 25.1892C5.14939 27.2312 6.77167 28.8534 8.81357 29.6992C9.4955 29.9817 10.3348 30.1529 11.6445 30.2422C12.9692 30.3327 14.6501 30.3336 17.0026 30.3336C19.3551 30.3336 21.0361 30.3327 22.3608 30.2422C23.6704 30.1529 24.5098 29.9817 25.1916 29.6992C27.2336 28.8534 28.8558 27.2312 29.7016 25.1892C29.9841 24.5074 30.1553 23.6681 30.2446 22.3584C30.3351 21.0337 30.3359 19.3527 30.3359 17.0002C30.3359 15.7239 30.3359 14.6399 30.3206 13.6937C30.3058 12.7734 31.0399 12.0153 31.9603 12.0004C32.8806 11.9856 33.6388 12.7197 33.6536 13.64C33.6693 14.6159 33.6693 15.7257 33.6693 16.9896V17.0616C33.6693 19.3394 33.6693 21.1337 33.5703 22.5852C33.4693 24.0647 33.2599 25.3091 32.7813 26.4649C31.5971 29.3236 29.3259 31.5947 26.4673 32.7789C25.3114 33.2576 24.0671 33.4669 22.5876 33.5679C21.1361 33.6669 19.3418 33.6669 17.0641 33.6669H16.9411C14.6634 33.6669 12.869 33.6669 11.4176 33.5679C9.93817 33.4669 8.69375 33.2576 7.53797 32.7789C4.6793 31.5947 2.4081 29.3236 1.224 26.4649C0.745271 25.3091 0.535888 24.0647 0.434954 22.5852C0.335921 21.1337 0.335938 19.3394 0.335938 17.0616V16.9389C0.335938 14.6611 0.335921 12.8666 0.434954 11.4152C0.535888 9.9358 0.745271 8.69137 1.224 7.53558C2.4081 4.67693 4.6793 2.40573 7.53797 1.22163C8.69375 0.742882 9.93817 0.533515 11.4176 0.432582C12.869 0.333548 14.6634 0.333548 16.9413 0.333565H17.0026C17.1233 0.333565 17.2428 0.333548 17.3609 0.333532C21.2769 0.332932 23.8301 0.332548 25.8544 0.995082C26.7291 1.2814 27.2063 2.22268 26.9199 3.0975C26.6336 3.9723 25.6923 4.44936 24.8174 4.16303ZM33.4421 5.32693C33.9059 6.12203 33.6374 7.14255 32.8423 7.60635L32.4729 7.82185C26.4814 11.3169 21.6676 16.5184 18.6463 22.7621C18.4113 23.2476 17.9559 23.5894 17.4241 23.6794C16.8923 23.7694 16.3498 23.5966 15.9681 23.2152L9.279 16.5332C8.62779 15.8827 8.62722 14.8276 9.27775 14.1762C9.92827 13.525 10.9836 13.5245 11.6348 14.1751L16.7189 19.2539C20.0448 13.3271 24.8988 8.38101 30.7933 4.94258L31.1628 4.7271C31.9578 4.2633 32.9783 4.53185 33.4421 5.32693Z" fill="#6AAEF2"/>
</svg>
