<svg width="40" height="38" viewBox="0 0 40 38" fill="none" xmlns="http://www.w3.org/2000/svg">
<path d="M2.56719 14.1714C2.21984 13.7874 2.24961 13.1945 2.63359 12.8472L11.6988 4.64779C12.0552 4.32545 12.5976 4.32475 12.9546 4.64607L18.1022 9.27686L24.7722 2.60693H24.5214C24.0037 2.60693 23.5839 2.18717 23.5839 1.66943C23.5839 1.1517 24.0037 0.731934 24.5214 0.731934H27.0355C27.5533 0.731934 27.973 1.1517 27.973 1.66943V4.18131C27.973 4.69904 27.5533 5.11881 27.0355 5.11881C26.5178 5.11881 26.098 4.69904 26.098 4.18131V3.93279L18.7992 11.2315C18.4467 11.584 17.88 11.5991 17.5093 11.2656L12.3293 6.60561L3.89133 14.2377C3.71195 14.4 3.48695 14.48 3.26273 14.48C3.00703 14.48 2.75227 14.3759 2.56719 14.1714ZM36.4392 28.4947H29.0741V21.1274C29.0741 20.8686 28.8642 20.6587 28.6054 20.6587C24.0261 20.6587 20.3005 24.3842 20.3005 28.9635C20.3005 33.5428 24.0261 37.2683 28.6054 37.2683C33.1847 37.2683 36.908 33.5428 36.908 28.9635C36.908 28.7047 36.698 28.4947 36.4392 28.4947ZM31.0724 18.1916C30.8136 18.1916 30.6037 18.4015 30.6037 18.6604V26.4965C30.6037 26.7553 30.8136 26.9652 31.0724 26.9652H38.9062C39.1651 26.9652 39.375 26.7553 39.375 26.4965C39.375 21.9172 35.6505 18.1916 31.0724 18.1916ZM23.1152 10.0864C22.8563 10.0864 22.6464 10.2963 22.6464 10.5551V20.7152C24.0423 19.704 25.7035 19.0379 27.5043 18.8433V10.5551C27.5043 10.2963 27.2944 10.0864 27.0355 10.0864H23.1152ZM20.8859 22.3347V16.1283C20.8859 15.8694 20.676 15.6595 20.4172 15.6595H16.4969C16.238 15.6595 16.0281 15.8694 16.0281 16.1283V28.0259H14.2677V13.2307C14.2677 12.9718 14.0577 12.7619 13.7989 12.7619H9.87852C9.61969 12.7619 9.40977 12.9718 9.40977 13.2307V28.0259H7.6493V19.1245C7.6493 18.8657 7.43938 18.6558 7.18055 18.6558H3.2625C3.00367 18.6558 2.79375 18.8657 2.79375 19.1245V28.0259H1.5625C1.04477 28.0259 0.625 28.4457 0.625 28.9634C0.625 29.4811 1.04477 29.9009 1.5625 29.9009H18.4691C18.4408 29.5921 18.4255 29.2795 18.4255 28.9634C18.4255 26.4338 19.3532 24.117 20.8859 22.3347H20.8859Z" fill="#50AD76"/>
</svg>
