<svg width="42" height="38" viewBox="0 0 42 38" fill="none" xmlns="http://www.w3.org/2000/svg">
<path fill-rule="evenodd" clip-rule="evenodd" d="M25.2201 27.2679H18.94C18.5637 27.2679 18.2344 26.9621 18.2344 26.5623V10.4739C18.2344 10.0741 18.5637 9.76831 18.94 9.76831H25.2201C25.5964 9.76831 25.9257 10.0741 25.9257 10.4739V26.5623C25.9257 26.9621 25.5964 27.2679 25.2201 27.2679Z" fill="#8BC34A"/>
<path fill-rule="evenodd" clip-rule="evenodd" d="M26.9668 37.6642C26.567 37.6642 17.6055 37.6642 17.2056 37.6642C16.8293 37.6642 16.5 37.3584 16.5 36.9586V32.8895C16.5 32.5131 16.8293 32.1838 17.2056 32.1838H26.9668C27.3432 32.1838 27.6725 32.5131 27.6725 32.8895V36.9586C27.6725 37.3584 27.3432 37.6642 26.9668 37.6642Z" fill="#BAC1CD"/>
<path fill-rule="evenodd" clip-rule="evenodd" d="M14.6829 27.2682H10.0728C9.67296 27.2682 9.36719 26.9624 9.36719 26.5625V18.6595C9.36719 18.2596 9.67296 17.9539 10.0728 17.9539H14.6829C15.0593 17.9539 15.3886 18.2596 15.3886 18.6595V26.5625C15.3886 26.9624 15.0593 27.2682 14.6829 27.2682Z" fill="#EF5350"/>
<path fill-rule="evenodd" clip-rule="evenodd" d="M34.0892 27.2682H29.4791C29.1027 27.2682 28.7734 26.9624 28.7734 26.5625V18.6595C28.7734 18.2596 29.1027 17.9539 29.4791 17.9539H34.0892C34.489 17.9539 34.7948 18.2596 34.7948 18.6595V26.5625C34.7948 26.9624 34.489 27.2682 34.0892 27.2682Z" fill="#FFAE06"/>
<path fill-rule="evenodd" clip-rule="evenodd" d="M36.5798 33.5952H7.57844C5.10874 33.5952 3.08594 31.5959 3.08594 29.1027V12.6145C3.08594 12.3322 3.27411 12.0735 3.50931 11.9559C3.76805 11.8618 4.07382 11.9089 4.28551 12.097C5.36747 13.0849 6.80225 13.6494 8.28407 13.6494C11.577 13.6494 14.2349 10.968 14.2349 7.69862C14.2349 6.56961 13.9291 5.48765 13.3411 4.54681C13.2235 4.33512 13.1999 4.05287 13.3411 3.84118C13.4587 3.60597 13.6939 3.46484 13.9526 3.46484H36.5798C39.0495 3.46484 41.0723 5.48765 41.0723 7.95735V29.1027C41.0723 31.5959 39.0495 33.5952 36.5798 33.5952ZM4.49719 25.8568H39.661V7.95735C39.661 6.26384 38.2733 4.8761 36.5798 4.8761H15.1051C15.458 5.7699 15.6461 6.71074 15.6461 7.69862C15.6461 11.7442 12.3532 15.0607 8.28407 15.0607C6.94337 15.0607 5.64972 14.6843 4.49719 14.0022V25.8568Z" fill="#E4E8F3"/>
<path fill-rule="evenodd" clip-rule="evenodd" d="M31.4754 37.6642H12.6822C12.2823 37.6642 11.9766 37.3584 11.9766 36.9586C11.9766 36.5822 12.2823 36.2529 12.6822 36.2529H31.4754C31.8753 36.2529 32.1811 36.5822 32.1811 36.9586C32.1811 37.3584 31.8753 37.6642 31.4754 37.6642Z" fill="#E4E8F3"/>
<path fill-rule="evenodd" clip-rule="evenodd" d="M36.1544 30.4435H35.19C34.7901 30.4435 34.4844 30.1142 34.4844 29.7379C34.4844 29.338 34.7901 29.0322 35.19 29.0322H36.1544C36.5542 29.0322 36.86 29.338 36.86 29.7379C36.86 30.1142 36.5542 30.4435 36.1544 30.4435Z" fill="#BAC1CD"/>
<path fill-rule="evenodd" clip-rule="evenodd" d="M31.8497 30.4435H30.8853C30.4855 30.4435 30.1797 30.1142 30.1797 29.7379C30.1797 29.338 30.4855 29.0322 30.8853 29.0322H31.8497C32.2495 29.0322 32.5553 29.338 32.5553 29.7379C32.5553 30.1142 32.2495 30.4435 31.8497 30.4435Z" fill="#BAC1CD"/>
<path fill-rule="evenodd" clip-rule="evenodd" d="M27.545 30.4435H26.5806C26.1808 30.4435 25.875 30.1142 25.875 29.7379C25.875 29.338 26.1808 29.0322 26.5806 29.0322H27.545C27.9448 29.0322 28.2506 29.338 28.2506 29.7379C28.2506 30.1142 27.9448 30.4435 27.545 30.4435Z" fill="#BAC1CD"/>
<path fill-rule="evenodd" clip-rule="evenodd" d="M8.28393 15.0605C4.23833 15.0605 0.921875 11.7441 0.921875 7.69848C0.921875 3.62936 4.23833 0.336426 8.28393 0.336426C12.3531 0.336426 15.646 3.62936 15.646 7.69848C15.646 11.7441 12.3531 15.0605 8.28393 15.0605ZM8.28393 1.74768C5.01452 1.74768 2.33313 4.40555 2.33313 7.69848C2.33313 10.9679 5.01452 13.6493 8.28393 13.6493C11.5769 13.6493 14.2347 10.9679 14.2347 7.69848C14.2347 4.40555 11.5769 1.74768 8.28393 1.74768Z" fill="#5C9CEE"/>
<path fill-rule="evenodd" clip-rule="evenodd" d="M10.0976 9.22732H7.51032C7.11046 9.22732 6.80469 8.92155 6.80469 8.52169V5.93439C6.80469 5.53453 7.11046 5.22876 7.51032 5.22876C7.88665 5.22876 8.21594 5.53453 8.21594 5.93439V7.81606H10.0976C10.474 7.81606 10.8032 8.12184 10.8032 8.52169C10.8032 8.92155 10.474 9.22732 10.0976 9.22732Z" fill="#5C9CEE"/>
<path fill-rule="evenodd" clip-rule="evenodd" d="M8.29157 2.5474C7.91523 2.5474 7.58594 2.2181 7.58594 1.84177V1.04205C7.58594 0.642198 7.91523 0.336426 8.29157 0.336426C8.69142 0.336426 8.99719 0.642198 8.99719 1.04205V1.84177C8.99719 2.2181 8.69142 2.5474 8.29157 2.5474Z" fill="#5C9CEE"/>
<path fill-rule="evenodd" clip-rule="evenodd" d="M11.2248 3.32354C11.0837 3.32354 10.9661 3.30002 10.872 3.22946C10.5192 3.04129 10.4015 2.61791 10.6132 2.2651L11.0131 1.55947C11.2013 1.23018 11.6246 1.11257 11.9775 1.30074C12.3067 1.51243 12.4244 1.93581 12.2362 2.2651L11.8363 2.97073C11.6952 3.20594 11.46 3.32354 11.2248 3.32354Z" fill="#5C9CEE"/>
<path fill-rule="evenodd" clip-rule="evenodd" d="M13.3654 5.4643C13.1067 5.4643 12.8715 5.3467 12.7539 5.11149C12.5422 4.7822 12.6598 4.35882 13.0126 4.14713L13.6947 3.74727C14.0475 3.55911 14.4709 3.67671 14.6591 4.006C14.8707 4.3353 14.7531 4.7822 14.4003 4.97036L13.7182 5.37022C13.6006 5.44078 13.483 5.4643 13.3654 5.4643Z" fill="#5C9CEE"/>
<path fill-rule="evenodd" clip-rule="evenodd" d="M14.935 8.40418H14.1353C13.7355 8.40418 13.4297 8.07488 13.4297 7.69855C13.4297 7.29869 13.7355 6.99292 14.1353 6.99292H14.935C15.3349 6.99292 15.6407 7.29869 15.6407 7.69855C15.6407 8.07488 15.3349 8.40418 14.935 8.40418Z" fill="#5C9CEE"/>
<path fill-rule="evenodd" clip-rule="evenodd" d="M14.0475 11.7209C13.9299 11.7209 13.8123 11.6974 13.6947 11.6268L13.0126 11.227C12.6598 11.0388 12.5422 10.5919 12.7539 10.2626C12.942 9.9333 13.3654 9.8157 13.7182 10.0039L14.4003 10.4037C14.7531 10.5919 14.8707 11.0388 14.6591 11.3681C14.5415 11.6033 14.3062 11.7209 14.0475 11.7209Z" fill="#5C9CEE"/>
<path fill-rule="evenodd" clip-rule="evenodd" d="M11.6246 14.1668C11.3659 14.1668 11.1307 14.0257 11.0131 13.814L10.6132 13.1084C10.4015 12.7791 10.5192 12.3322 10.872 12.144C11.2013 11.9558 11.6246 12.0734 11.8363 12.4027L12.2362 13.1084C12.4244 13.4377 12.3067 13.8846 11.9775 14.0727C11.8598 14.1433 11.7422 14.1668 11.6246 14.1668Z" fill="#5C9CEE"/>
<path fill-rule="evenodd" clip-rule="evenodd" d="M8.29157 15.0604C7.91523 15.0604 7.58594 14.7311 7.58594 14.3548V13.5316C7.58594 13.1552 7.91523 12.8259 8.29157 12.8259C8.69142 12.8259 8.99719 13.1552 8.99719 13.5316V14.3548C8.99719 14.7311 8.69142 15.0604 8.29157 15.0604Z" fill="#5C9CEE"/>
<path fill-rule="evenodd" clip-rule="evenodd" d="M4.96697 14.1668C4.84937 14.1668 4.70824 14.1433 4.61416 14.0727C4.26134 13.861 4.14374 13.4377 4.35543 13.1084L4.75528 12.4027C4.94345 12.0734 5.39035 11.9558 5.71964 12.144C6.04893 12.3322 6.16654 12.7791 5.97837 13.1084L5.57852 13.814C5.43739 14.0257 5.20218 14.1668 4.96697 14.1668Z" fill="#5C9CEE"/>
<path fill-rule="evenodd" clip-rule="evenodd" d="M2.52166 11.7209C2.28645 11.7209 2.05124 11.6033 1.91012 11.3681C1.72195 11.0388 1.83955 10.6154 2.16885 10.4037L2.87447 10.0039C3.20377 9.8157 3.65067 9.9333 3.83883 10.2626C4.027 10.5919 3.9094 11.0388 3.5801 11.227L2.87447 11.6268C2.75687 11.6974 2.63926 11.7209 2.52166 11.7209Z" fill="#5C9CEE"/>
<path fill-rule="evenodd" clip-rule="evenodd" d="M2.45074 8.40418H1.6275C1.25117 8.40418 0.921875 8.07488 0.921875 7.69855C0.921875 7.29869 1.25117 6.99292 1.6275 6.99292H2.45074C2.82707 6.99292 3.15637 7.29869 3.15637 7.69855C3.15637 8.07488 2.82707 8.40418 2.45074 8.40418Z" fill="#5C9CEE"/>
<path fill-rule="evenodd" clip-rule="evenodd" d="M3.22729 5.4643C3.10968 5.4643 2.99208 5.44078 2.87447 5.37022L2.16885 4.97036C1.83955 4.7822 1.72195 4.3353 1.91012 4.006C2.09828 3.67671 2.54518 3.55911 2.87447 3.74727L3.5801 4.14713C3.9094 4.35882 4.027 4.7822 3.83883 5.11149C3.69771 5.3467 3.4625 5.4643 3.22729 5.4643Z" fill="#5C9CEE"/>
<path fill-rule="evenodd" clip-rule="evenodd" d="M5.36683 3.32354C5.13162 3.32354 4.87289 3.20594 4.75528 2.97073L4.35543 2.2651C4.14374 1.93581 4.26134 1.51243 4.61416 1.30074C4.94345 1.11257 5.36683 1.23018 5.57852 1.55947L5.97837 2.2651C6.16654 2.61791 6.04893 3.04129 5.71964 3.22946C5.60204 3.30002 5.48443 3.32354 5.36683 3.32354Z" fill="#5C9CEE" stroke="#5C9CEE" stroke-width="0.0705628"/>
</svg>
